# xmcd
#
# Track frame offsets:
#	150
#	14795
#	36162
#	67365
#	81088
#	100675
#	158539
#	178033
#	197128
#	216143
#	243137
#	258324
#
# Disc length: 3605 seconds
#
# Revision: 1
# Processed by: cddbd v1.5.2PL0 Copyright (c) Steve Scherf et al.
# Submitted via: audiograbber 1.83.01
#
DISCID=a20e130c
DTITLE=Various Artist - Bedtime Beats CD1
DYEAR=2008
DGENRE=Jazz
TTITLE0=So Many Stars - Earl Klugh
TTITLE1=Airport Sadness - Brad Mehldau
TTITLE2=Little Girl Blue - Milt Jackson
TTITLE3=So Little Time - Duke Ellington
TTITLE4=Naima - John Coltrane
TTITLE5=Young and Foolish - Brad Mehldau
TTITLE6=Blues From the East - Cyrus Chestnut
TTITLE7=This Is All I Ask - Bill Evans with Toots Thielemans
TTITLE8=Central Park West - John Coltrane
TTITLE9=The Peacocks - Bill Evans
TTITLE10=Days of Wine and Roses - Duke Ellington
TTITLE11=Total Praise - Cyrus Chestnut
EXTD=YEAR: 2008
EXTT0=
EXTT1=
EXTT2=
EXTT3=
EXTT4=
EXTT5=
EXTT6=
EXTT7=
EXTT8=
EXTT9=
EXTT10=
EXTT11=
PLAYORDER=
